<?xml version="1.0" standalone="no"?><!DOCTYPE svg PUBLIC "-//W3C//DTD SVG 1.1//EN" "http://www.w3.org/Graphics/SVG/1.1/DTD/svg11.dtd"><svg t="1622789424094" class="icon" viewBox="0 0 1024 1024" version="1.1" xmlns="http://www.w3.org/2000/svg" p-id="940" xmlns:xlink="http://www.w3.org/1999/xlink" width="200" height="200"><defs><style type="text/css"></style></defs><path d="M796.444444 489.244444c-12.515556 0-22.755556 10.24-22.755555 22.755556 0 144.497778-117.191111 261.688889-261.688889 261.688889s-261.688889-117.191111-261.688889-261.688889 117.191111-261.688889 261.688889-261.688889c12.515556 0 22.755556-10.24 22.755556-22.755555s-10.24-22.755556-22.755556-22.755556c-169.528889 0-307.2 137.671111-307.2 307.2s137.671111 307.2 307.2 307.2 307.2-137.671111 307.2-307.2c0-12.515556-10.24-22.755556-22.755556-22.755556z" p-id="941"></path><path d="M518.826667 328.817778L460.231111 411.875556l-101.262222-1.137778H358.4c-8.533333 0-16.497778 4.551111-20.48 12.515555-3.982222 7.964444-3.413333 17.066667 2.275556 23.893334l60.871111 81.351111-32.426667 96.142222c-2.844444 7.964444-0.568889 17.066667 5.688889 23.324444 6.257778 6.257778 15.36 8.533333 23.324444 5.688889l96.142223-32.426666 81.351111 60.871111c3.982222 2.844444 8.533333 4.551111 13.653333 4.551111 3.413333 0 6.826667-0.568889 10.24-2.275556 7.964444-3.982222 12.515556-11.946667 12.515556-20.48l-1.137778-101.262222 82.488889-58.595555c6.826667-5.12 10.808889-13.653333 9.102222-22.186667-1.137778-8.533333-7.395556-15.36-15.928889-18.204445l-96.711111-30.151111-30.151111-96.711111c-2.844444-8.533333-9.671111-14.222222-18.204445-15.928889-8.533333-2.844444-17.066667 1.137778-22.186666 7.964445z m30.72 128c2.275556 7.395556 7.964444 12.515556 14.791111 14.791111l64.284444 19.911111-54.613333 38.684444c-6.257778 4.551111-9.671111 11.377778-9.671111 18.773334l1.137778 67.128889-54.044445-40.391111c-3.982222-2.844444-8.533333-4.551111-13.653333-4.551112-2.275556 0-5.12 0.568889-7.395556 1.137778L426.666667 593.92l21.617777-63.715556c2.275556-6.826667 1.137778-14.791111-3.413333-21.048888L404.48 455.111111l67.128889 1.137778c7.395556 0 14.791111-3.413333 18.773333-9.671111l38.684445-54.613334 20.48 64.853334zM632.604444 391.395556c4.551111 4.551111 10.24 6.826667 15.928889 6.826666s11.377778-2.275556 15.928889-6.826666l108.088889-108.088889c9.102222-9.102222 9.102222-23.324444 0-32.426667-9.102222-9.102222-23.324444-9.102222-32.426667 0l-108.088888 108.088889c-8.533333 9.102222-8.533333 23.893333 0.568888 32.426667zM585.955556 295.822222c5.688889 0 11.377778-2.275556 15.928888-6.826666l45.511112-45.511112c9.102222-9.102222 9.102222-23.324444 0-32.426666-9.102222-9.102222-23.324444-9.102222-32.426667 0l-45.511111 45.511111c-9.102222 9.102222-9.102222 23.324444 0 32.426667 5.12 4.551111 10.808889 6.826667 16.497778 6.826666zM735.004444 453.973333c4.551111 4.551111 10.24 6.826667 15.928889 6.826667s11.377778-2.275556 15.928889-6.826667l45.511111-45.511111c9.102222-9.102222 9.102222-23.324444 0-32.426666-9.102222-9.102222-23.324444-9.102222-32.426666 0l-45.511111 45.511111c-8.533333 9.102222-8.533333 23.893333 0.568888 32.426666z" p-id="942"></path></svg>